<svg width="429" height="162" viewBox="0 0 429 162" fill="none" xmlns="http://www.w3.org/2000/svg">
<path d="M81.9966 136.194C108.227 120.039 135.549 120.86 151.098 123.286C158.613 111.008 162.72 96.9492 162.996 82.5572C163.273 68.1651 159.708 53.9594 152.67 41.4022C145.632 28.8449 135.374 18.3898 122.952 11.1128C110.53 3.83588 96.3934 0 81.9966 0C67.5998 0 53.463 3.83588 41.0413 11.1128C28.6196 18.3898 18.3616 28.8449 11.3233 41.4022C4.28503 53.9594 0.72058 68.1651 0.996856 82.5572C1.27313 96.9492 5.38017 111.008 12.8952 123.286C28.4443 120.862 55.7658 120.039 81.9966 136.194Z" fill="#22577A"/>
<path d="M163.993 126.21C143.672 126.921 123.629 131.161 104.761 138.74C96.9034 141.83 89.2941 145.518 82.0005 149.772C74.7069 145.518 67.0976 141.83 59.2397 138.74C40.3692 131.16 20.3239 126.92 0 126.209V126.209C6.32478 127.446 12.541 129.184 18.5896 131.408C26.1757 140.949 35.8177 148.655 46.797 153.952C57.7762 159.249 69.8095 162 82 162C94.1905 162 106.224 159.249 117.203 153.952C128.182 148.655 137.824 140.949 145.41 131.408C151.459 129.184 157.675 127.446 164 126.209L163.993 126.21Z" fill="#57CC99"/>
<path d="M103.597 46.841C100.645 42.946 97.2043 39.7692 92.1411 38.5977C85.0943 36.9574 77.7485 37.1116 70.7767 39.0461C67.1982 39.9212 64.1022 42.1573 62.1467 45.279C60.8322 47.3254 59.4718 49.3467 58.2801 51.462C55.4913 56.4285 53.0861 61.5379 52.319 67.2864C51.3931 74.2034 54.6543 79.7572 61.1179 81.8674C65.7655 83.236 70.6738 83.4692 75.4304 82.5476C76.2827 82.389 77.0541 81.9406 77.6137 81.2784C78.1733 80.6163 78.4867 79.7811 78.5009 78.9143C78.6347 76.2947 76.4832 74.4591 73.6994 74.7807C70.5317 75.2853 67.2962 75.1703 64.1723 74.4421C61.4365 73.6941 60.3238 72.1661 60.2948 69.3277C60.2679 66.1828 61.4115 63.3355 62.5922 60.5072C62.8469 59.884 63.1725 59.2888 63.4651 58.6816C63.552 58.7136 63.638 58.7455 63.7269 58.7745C64.0495 63.3405 64.3751 67.9066 64.7117 72.6505C64.9984 72.4008 65.1003 72.3508 65.1113 72.2939C65.3776 70.4203 65.6367 68.5481 65.8884 66.6772C66.3119 63.5752 68.0379 62.2539 71.1143 62.8232C75.4973 63.6282 79.8703 64.4901 84.2392 65.3749C87.002 65.9392 88.1347 67.7858 87.4915 70.5591C86.6924 73.9767 85.8633 77.3903 85.0643 80.8079C84.0135 85.313 82.9767 89.8221 81.9209 94.3902C82.5462 94.4831 83.0606 94.561 83.6469 94.6519V121.63C83.6469 123.069 83.6469 124.508 83.6469 125.946C87.0568 123.88 90.6387 122.112 94.3526 120.661C94.7371 120.508 95.1277 120.356 95.5282 120.204C95.5282 116.529 95.5282 112.855 95.5282 109.18V108.941C95.5282 105.537 95.5282 102.131 95.5282 98.7246C95.5062 98.4781 95.4634 98.2338 95.4004 97.9945C92.6376 97.7718 90.7197 96.5144 89.7858 94.3173C89.3153 93.2605 89.1629 92.0896 89.347 90.9477C89.5311 89.8057 90.0439 88.742 90.8226 87.8866C92.212 86.1179 93.5675 84.3073 94.793 82.4197C97.2063 78.6996 99.4097 74.8176 99.8782 70.3295C100.315 66.1249 100.356 61.8774 100.577 57.6459C100.677 57.63 100.777 57.614 100.877 57.6C100.988 57.8747 101.111 58.1483 101.214 58.4299C103.356 64.2464 102.576 69.9609 100.514 75.5956C98.6167 80.7799 95.4513 85.2191 92.1911 89.5984C91.8671 90.0066 91.6277 90.4752 91.4869 90.9768C91.3461 91.4785 91.3067 92.0032 91.3709 92.5203C91.4351 93.0373 91.6017 93.5364 91.8609 93.9884C92.1202 94.4404 92.4669 94.8363 92.8808 95.1528C93.2948 95.4694 93.7676 95.7003 94.2718 95.8321C94.776 95.964 95.3013 95.9941 95.8173 95.9207C96.3332 95.8472 96.8293 95.6718 97.2767 95.4046C97.7241 95.1373 98.1137 94.7837 98.4229 94.3642C102.458 89.2678 105.647 83.5555 107.868 77.4462C111.553 66.5514 110.712 56.2228 103.597 46.841ZM79.3169 40.1327C81.0999 40.0668 82.8878 40.0738 84.6678 40.1687C84.8845 40.1826 85.3 40.8987 85.2251 41.1823C84.9254 42.3488 84.47 43.4724 84.0694 44.6179H79.9102C79.5057 43.4584 79.0342 42.255 78.6976 41.0226C78.6377 40.7849 79.0922 40.1397 79.3169 40.1327V40.1327ZM83.1645 63.3315C82.7171 63.747 82.3091 64.203 81.9459 64.6938C80.8222 63.4404 79.8213 62.3518 78.8614 61.2333C78.6685 60.9937 78.5682 60.6928 78.5788 60.3854C78.9314 56.038 79.3129 51.6967 79.6934 47.3513C79.7254 47.1973 79.7732 47.047 79.8363 46.9029H84.2592C84.5759 50.5801 84.7207 54.1794 85.2481 57.7198C85.4949 58.7563 85.4287 59.8427 85.058 60.8415C84.6873 61.8404 84.0287 62.7069 83.1655 63.3315H83.1645Z" fill="white"/>
<path d="M81.9761 8.08739C83.6924 8.07464 85.394 8.40521 86.9807 9.05967C88.5674 9.71413 90.0071 10.6793 91.2152 11.8983C92.4233 13.1173 93.3754 14.5656 94.0154 16.1579C94.6555 17.7502 94.9706 19.4545 94.9421 21.1704C94.9352 23.7531 94.1617 26.2757 92.7199 28.4186C91.278 30.5615 89.2325 32.2283 86.8424 33.208C84.4524 34.1877 81.8253 34.4362 79.2939 33.922C76.7625 33.4077 74.4407 32.1539 72.6225 30.3193C70.8044 28.4848 69.5716 26.1519 69.0804 23.6163C68.5892 21.0807 68.8616 18.4564 69.8633 16.0757C70.8649 13.6951 72.5506 11.6652 74.7069 10.2431C76.8632 8.82104 79.393 8.0708 81.9761 8.08739Z" fill="white"/>
<path d="M80.3243 112.678C80.3243 117.296 80.3243 121.914 80.3243 126.531C76.4925 124.382 72.5216 122.49 68.438 120.869C68.438 119.537 68.438 118.206 68.438 116.874V95.9202C70.8682 96.5374 73.1426 97.0627 75.383 97.7039C77.0401 98.1772 78.6332 98.388 80.2534 97.2585C80.2833 97.6719 80.3183 97.9256 80.3183 98.1772C80.3216 103.011 80.3236 107.845 80.3243 112.678Z" fill="white"/>
<path d="M65.051 84.9285C68.1814 84.9285 71.156 85.0513 74.1156 84.8975C77.8213 84.7048 80.3024 82.26 80.3384 79.0601C80.358 78.2139 80.1977 77.3731 79.8682 76.5933C79.5387 75.8136 79.0474 75.1126 78.4268 74.5368C77.8063 73.961 77.0706 73.5234 76.2683 73.253C75.466 72.9826 74.6155 72.8854 73.7729 72.968C71.5465 73.1448 69.3121 73.2277 66.9268 73.3615C67.2115 70.9087 67.3873 68.7675 67.7259 66.6512C67.9836 65.0623 68.6249 64.6449 70.1761 64.9355C74.6862 65.7811 79.1904 66.6569 83.6885 67.5631C85.2417 67.8757 85.7082 68.6616 85.3486 70.2086C83.4841 78.2289 81.6122 86.2468 79.7331 94.2624C79.2816 96.1849 78.5495 96.6133 76.6077 96.1509C73.2829 95.3593 69.9613 94.5546 66.6432 93.737C64.5086 93.2097 64.1321 92.6974 64.3518 90.5182C64.5346 88.7365 64.7943 86.9609 65.051 84.9285Z" fill="#57CC99"/>
<path d="M147.146 115.132C124.608 112.155 107.461 116.003 96.431 120.199C96.0315 120.351 95.6399 120.503 95.2553 120.656C91.5414 122.107 87.9596 123.875 84.5497 125.941C84.0972 126.217 83.7037 126.468 83.3721 126.687C82.4581 127.286 81.9936 127.649 81.9936 127.649C81.3844 127.287 80.7361 126.915 80.0559 126.532C60.8625 115.747 38.5981 111.732 16.8457 115.133C29.3933 109.206 43.2485 106.586 57.0943 107.522C60.8202 107.792 64.5223 108.326 68.1726 109.12C72.2204 109.999 76.1943 111.19 80.0589 112.681C80.7321 112.943 81.3783 113.2 81.9946 113.459C82.4561 113.26 82.9175 113.055 83.379 112.866C83.7706 112.702 84.1611 112.544 84.5547 112.389C88.0243 111.02 91.6032 109.946 95.2533 109.178C95.6469 109.094 96.0384 109.016 96.429 108.939C123.086 103.775 147.146 115.132 147.146 115.132Z" fill="white"/>
<path d="M216.662 76.9729H207.623V40.5992H194V31.4979H230.254V40.5992H216.662V76.9729Z" fill="#22577A"/>
<path d="M242.296 68.6644C242.633 68.7701 242.97 68.8441 243.307 68.8864C243.644 68.9075 243.982 68.9181 244.319 68.9181C245.162 68.9181 245.973 68.8018 246.753 68.5692C247.532 68.3367 248.259 68.009 248.933 67.5862C249.629 67.1422 250.24 66.6137 250.767 66.0006C251.315 65.3663 251.757 64.6687 252.094 63.9076L258.416 70.2817C257.615 71.4233 256.688 72.4487 255.634 73.3578C254.602 74.2668 253.474 75.0385 252.252 75.6727C251.051 76.307 249.776 76.7827 248.428 77.0998C247.1 77.438 245.731 77.6072 244.319 77.6072C241.938 77.6072 239.694 77.1632 237.586 76.2753C235.5 75.3873 233.667 74.1506 232.087 72.565C230.527 70.9794 229.295 69.0978 228.389 66.9202C227.483 64.7215 227.03 62.3114 227.03 59.6899C227.03 57.0049 227.483 54.5525 228.389 52.3327C229.295 50.1128 230.527 48.2207 232.087 46.6562C233.667 45.0918 235.5 43.8761 237.586 43.0093C239.694 42.1425 241.938 41.7091 244.319 41.7091C245.731 41.7091 247.111 41.8783 248.459 42.2165C249.808 42.5548 251.083 43.041 252.284 43.6753C253.506 44.3095 254.644 45.0918 255.697 46.022C256.751 46.9311 257.678 47.9564 258.479 49.098L242.296 68.6644ZM246.721 50.8105C246.321 50.6625 245.92 50.5674 245.52 50.5251C245.141 50.4828 244.74 50.4617 244.319 50.4617C243.139 50.4617 242.022 50.6836 240.968 51.1276C239.936 51.5504 239.03 52.1635 238.25 52.9669C237.492 53.7703 236.891 54.7428 236.449 55.8844C236.006 57.0049 235.785 58.2734 235.785 59.6899C235.785 60.007 235.795 60.3664 235.816 60.7681C235.859 61.1698 235.911 61.582 235.974 62.0048C236.059 62.4065 236.154 62.7977 236.259 63.1782C236.364 63.5587 236.501 63.897 236.67 64.193L246.721 50.8105Z" fill="#22577A"/>
<path d="M295.364 76.9729H293.278L289.928 72.3113C289.106 73.0512 288.232 73.7489 287.305 74.4043C286.399 75.0385 285.44 75.5987 284.428 76.085C283.417 76.5501 282.374 76.9201 281.299 77.1949C280.246 77.4698 279.171 77.6072 278.075 77.6072C275.694 77.6072 273.45 77.2055 271.343 76.4021C269.257 75.5987 267.424 74.436 265.843 72.9138C264.284 71.3705 263.051 69.4889 262.145 67.269C261.239 65.0492 260.786 62.5228 260.786 59.6899C260.786 57.0472 261.239 54.6265 262.145 52.4278C263.051 50.208 264.284 48.3052 265.843 46.7196C267.424 45.134 269.257 43.9078 271.343 43.041C273.45 42.1531 275.694 41.7091 278.075 41.7091C279.171 41.7091 280.256 41.8466 281.331 42.1214C282.406 42.3962 283.449 42.7768 284.46 43.263C285.471 43.7493 286.43 44.3201 287.336 44.9755C288.263 45.6309 289.127 46.3391 289.928 47.1002L293.278 43.0728H295.364V76.9729ZM286.672 59.6899C286.672 58.506 286.441 57.3643 285.977 56.265C285.535 55.1445 284.924 54.1614 284.144 53.3157C283.364 52.449 282.448 51.7619 281.394 51.2545C280.362 50.7259 279.255 50.4617 278.075 50.4617C276.895 50.4617 275.779 50.6625 274.725 51.0642C273.692 51.4659 272.786 52.0578 272.007 52.8401C271.248 53.6223 270.648 54.5948 270.205 55.7576C269.763 56.8992 269.541 58.21 269.541 59.6899C269.541 61.1698 269.763 62.4911 270.205 63.6539C270.648 64.7955 271.248 65.7574 272.007 66.5397C272.786 67.3219 273.692 67.9139 274.725 68.3155C275.779 68.7172 276.895 68.9181 278.075 68.9181C279.255 68.9181 280.362 68.6644 281.394 68.157C282.448 67.6285 283.364 66.9414 284.144 66.0957C284.924 65.2289 285.535 64.2458 285.977 63.1465C286.441 62.026 286.672 60.8738 286.672 59.6899Z" fill="#22577A"/>
<path d="M331.555 49.764L325.233 56.1381C324.917 55.2502 324.485 54.4574 323.937 53.7597C323.39 53.0409 322.768 52.4384 322.073 51.9521C321.398 51.4659 320.661 51.0959 319.86 50.8422C319.059 50.5885 318.238 50.4617 317.395 50.4617C316.215 50.4617 315.098 50.7048 314.044 51.191C313.012 51.6773 312.106 52.3644 311.326 53.2523C310.568 54.1191 309.967 55.155 309.525 56.3601C309.082 57.5652 308.861 58.8971 308.861 60.3558C308.861 61.5397 309.082 62.6497 309.525 63.6856C309.967 64.7215 310.568 65.6306 311.326 66.4128C312.106 67.1951 313.012 67.8082 314.044 68.2521C315.098 68.6961 316.215 68.9181 317.395 68.9181C318.238 68.9181 319.049 68.8018 319.829 68.5692C320.608 68.3367 321.335 68.009 322.009 67.5862C322.705 67.1422 323.316 66.6137 323.843 66.0006C324.39 65.3663 324.833 64.6687 325.17 63.9076L331.492 70.2817C330.691 71.4233 329.764 72.4487 328.71 73.3578C327.678 74.2668 326.55 75.0385 325.328 75.6727C324.127 76.307 322.852 76.7827 321.504 77.0998C320.176 77.438 318.807 77.6072 317.395 77.6072C315.014 77.6072 312.77 77.1632 310.662 76.2753C308.576 75.3662 306.743 74.1294 305.163 72.565C303.603 71.0005 302.371 69.1718 301.465 67.0788C300.559 64.9858 300.106 62.7448 300.106 60.3558C300.106 57.7554 300.559 55.3242 301.465 53.0621C302.371 50.7999 303.603 48.8338 305.163 47.1636C306.743 45.4723 308.576 44.1404 310.662 43.1679C312.77 42.1954 315.014 41.7091 317.395 41.7091C318.807 41.7091 320.187 41.8888 321.535 42.2482C322.905 42.6076 324.201 43.1362 325.423 43.8338C326.666 44.5104 327.804 45.3455 328.837 46.3391C329.89 47.3327 330.796 48.4744 331.555 49.764Z" fill="#22577A"/>
<path d="M344.419 76.9729H335.79V29.5H344.419V44.4998C345.451 43.7176 346.516 43.1679 347.611 42.8508C348.707 42.5125 349.824 42.3434 350.962 42.3434C353.048 42.3434 355.007 42.7451 356.841 43.5484C358.674 44.3307 360.265 45.4194 361.613 46.8148C362.983 48.189 364.058 49.8063 364.837 51.6667C365.638 53.506 366.038 55.4722 366.038 57.5652V76.9729H357.346V57.5652H357.41C357.41 56.6772 357.241 55.8421 356.904 55.0599C356.567 54.2565 356.103 53.5589 355.513 52.9669C354.923 52.375 354.238 51.9098 353.459 51.5716C352.679 51.2333 351.847 51.0642 350.962 51.0642C350.056 51.0642 349.202 51.2333 348.401 51.5716C347.601 51.9098 346.905 52.375 346.315 52.9669C345.725 53.5589 345.262 54.2565 344.925 55.0599C344.588 55.8421 344.419 56.6772 344.419 57.5652V76.9729Z" fill="#22577A"/>
<path d="M385.666 68.6644C386.004 68.7701 386.341 68.8441 386.678 68.8864C387.015 68.9075 387.352 68.9181 387.689 68.9181C388.532 68.9181 389.343 68.8018 390.123 68.5692C390.903 68.3367 391.63 68.009 392.304 67.5862C392.999 67.1422 393.61 66.6137 394.137 66.0006C394.685 65.3663 395.128 64.6687 395.465 63.9076L401.786 70.2817C400.985 71.4233 400.058 72.4487 399.005 73.3578C397.972 74.2668 396.845 75.0385 395.623 75.6727C394.422 76.307 393.147 76.7827 391.798 77.0998C390.471 77.438 389.101 77.6072 387.689 77.6072C385.308 77.6072 383.064 77.1632 380.957 76.2753C378.871 75.3873 377.038 74.1506 375.457 72.565C373.898 70.9794 372.665 69.0978 371.759 66.9202C370.853 64.7215 370.4 62.3114 370.4 59.6899C370.4 57.0049 370.853 54.5525 371.759 52.3327C372.665 50.1128 373.898 48.2207 375.457 46.6562C377.038 45.0918 378.871 43.8761 380.957 43.0093C383.064 42.1425 385.308 41.7091 387.689 41.7091C389.101 41.7091 390.481 41.8783 391.83 42.2165C393.178 42.5548 394.453 43.041 395.654 43.6753C396.876 44.3095 398.014 45.0918 399.068 46.022C400.121 46.9311 401.049 47.9564 401.849 49.098L385.666 68.6644ZM390.091 50.8105C389.691 50.6625 389.291 50.5674 388.89 50.5251C388.511 50.4828 388.111 50.4617 387.689 50.4617C386.509 50.4617 385.393 50.6836 384.339 51.1276C383.306 51.5504 382.4 52.1635 381.621 52.9669C380.862 53.7703 380.262 54.7428 379.819 55.8844C379.377 57.0049 379.155 58.2734 379.155 59.6899C379.155 60.007 379.166 60.3664 379.187 60.7681C379.229 61.1698 379.282 61.582 379.345 62.0048C379.429 62.4065 379.524 62.7977 379.629 63.1782C379.735 63.5587 379.872 63.897 380.04 64.193L390.091 50.8105Z" fill="#22577A"/>
<path d="M414.84 76.9729H406.211V43.0093H408.297L411.142 47.0368C412.533 45.7683 414.113 44.7958 415.883 44.1193C417.653 43.4216 419.486 43.0728 421.383 43.0728H429V51.6984H421.383C420.477 51.6984 419.623 51.8676 418.822 52.2058C418.022 52.5441 417.326 53.0092 416.736 53.6012C416.146 54.1931 415.683 54.8908 415.346 55.6942C415.009 56.4975 414.84 57.3537 414.84 58.2628V76.9729Z" fill="#22577A"/>
<path d="M205.039 126.034C205.282 126.11 205.526 126.164 205.77 126.194C206.014 126.21 206.258 126.217 206.501 126.217C207.111 126.217 207.697 126.133 208.261 125.965C208.825 125.797 209.351 125.56 209.838 125.254C210.341 124.933 210.783 124.551 211.164 124.108C211.56 123.649 211.88 123.144 212.124 122.594L216.695 127.203C216.116 128.029 215.445 128.77 214.683 129.427C213.937 130.085 213.122 130.643 212.238 131.101C211.369 131.56 210.448 131.904 209.472 132.133C208.513 132.378 207.522 132.5 206.501 132.5C204.78 132.5 203.157 132.179 201.633 131.537C200.125 130.895 198.799 130.001 197.657 128.854C196.529 127.708 195.638 126.347 194.983 124.773C194.328 123.183 194 121.44 194 119.544C194 117.603 194.328 115.83 194.983 114.225C195.638 112.62 196.529 111.251 197.657 110.12C198.799 108.989 200.125 108.11 201.633 107.483C203.157 106.856 204.78 106.543 206.501 106.543C207.522 106.543 208.52 106.665 209.495 106.91C210.47 107.154 211.392 107.506 212.261 107.965C213.144 108.423 213.967 108.989 214.729 109.662C215.491 110.319 216.161 111.06 216.74 111.886L205.039 126.034ZM208.238 113.124C207.949 113.017 207.659 112.948 207.37 112.918C207.096 112.887 206.806 112.872 206.501 112.872C205.648 112.872 204.841 113.032 204.079 113.353C203.332 113.659 202.677 114.102 202.113 114.683C201.565 115.264 201.131 115.967 200.811 116.793C200.491 117.603 200.331 118.52 200.331 119.544C200.331 119.774 200.338 120.034 200.354 120.324C200.384 120.615 200.422 120.913 200.468 121.218C200.529 121.509 200.597 121.792 200.674 122.067C200.75 122.342 200.849 122.587 200.971 122.801L208.238 113.124Z" fill="#57CC99"/>
<path d="M218.637 109.019C218.637 107.659 218.896 106.382 219.414 105.19C219.932 103.998 220.633 102.958 221.517 102.072C222.416 101.17 223.459 100.459 224.648 99.9391C225.836 99.4193 227.109 99.1594 228.465 99.1594H243.503V105.74H228.465C228.007 105.74 227.581 105.825 227.185 105.993C226.789 106.161 226.438 106.398 226.133 106.704C225.844 106.994 225.615 107.338 225.448 107.735C225.28 108.133 225.196 108.561 225.196 109.019C225.196 109.478 225.28 109.914 225.448 110.326C225.615 110.724 225.844 111.076 226.133 111.381C226.438 111.672 226.789 111.901 227.185 112.069C227.581 112.237 228.007 112.321 228.465 112.321H235.024C236.38 112.321 237.652 112.581 238.84 113.101C240.044 113.606 241.088 114.309 241.972 115.211C242.871 116.097 243.571 117.144 244.074 118.352C244.592 119.544 244.851 120.821 244.851 122.181C244.851 123.542 244.592 124.818 244.074 126.011C243.571 127.203 242.871 128.25 241.972 129.152C241.088 130.039 240.044 130.742 238.84 131.262C237.652 131.782 236.38 132.041 235.024 132.041H220.465V125.46H235.024C235.481 125.46 235.908 125.376 236.304 125.208C236.7 125.04 237.043 124.811 237.332 124.52C237.637 124.215 237.873 123.863 238.041 123.466C238.208 123.068 238.292 122.64 238.292 122.181C238.292 121.723 238.208 121.295 238.041 120.897C237.873 120.5 237.637 120.156 237.332 119.865C237.043 119.56 236.7 119.323 236.304 119.155C235.908 118.986 235.481 118.902 235.024 118.902H228.465C227.109 118.902 225.836 118.643 224.648 118.123C223.459 117.603 222.416 116.9 221.517 116.013C220.633 115.111 219.932 114.064 219.414 112.872C218.896 111.664 218.637 110.38 218.637 109.019Z" fill="#57CC99"/>
<path d="M269.9 112.367L265.329 116.976C265.1 116.334 264.788 115.761 264.392 115.256C263.996 114.737 263.546 114.301 263.043 113.949C262.556 113.598 262.023 113.33 261.444 113.147C260.865 112.963 260.27 112.872 259.661 112.872C258.808 112.872 258 113.048 257.238 113.399C256.492 113.751 255.837 114.248 255.273 114.89C254.724 115.516 254.29 116.265 253.97 117.137C253.65 118.008 253.49 118.971 253.49 120.026C253.49 120.882 253.65 121.685 253.97 122.434C254.29 123.183 254.724 123.84 255.273 124.406C255.837 124.971 256.492 125.415 257.238 125.736C258 126.057 258.808 126.217 259.661 126.217C260.27 126.217 260.857 126.133 261.421 125.965C261.984 125.797 262.51 125.56 262.998 125.254C263.5 124.933 263.942 124.551 264.323 124.108C264.719 123.649 265.039 123.144 265.283 122.594L269.854 127.203C269.275 128.029 268.605 128.77 267.843 129.427C267.096 130.085 266.281 130.643 265.397 131.101C264.529 131.56 263.607 131.904 262.632 132.133C261.672 132.378 260.682 132.5 259.661 132.5C257.939 132.5 256.317 132.179 254.793 131.537C253.285 130.88 251.959 129.985 250.816 128.854C249.689 127.723 248.797 126.401 248.142 124.887C247.487 123.374 247.16 121.753 247.16 120.026C247.16 118.146 247.487 116.388 248.142 114.752C248.797 113.116 249.689 111.695 250.816 110.487C251.959 109.264 253.285 108.301 254.793 107.598C256.317 106.895 257.939 106.543 259.661 106.543C260.682 106.543 261.68 106.673 262.655 106.933C263.645 107.193 264.582 107.575 265.466 108.079C266.365 108.568 267.188 109.172 267.934 109.891C268.696 110.609 269.351 111.435 269.9 112.367Z" fill="#57CC99"/>
<path d="M279.202 132.041H272.962V97.7148H279.202V108.561C279.948 107.995 280.718 107.598 281.51 107.368C282.302 107.124 283.11 107.002 283.932 107.002C285.441 107.002 286.858 107.292 288.183 107.873C289.509 108.439 290.659 109.226 291.634 110.235C292.625 111.228 293.402 112.398 293.966 113.743C294.544 115.073 294.834 116.495 294.834 118.008V132.041H288.549V118.008H288.595C288.595 117.366 288.473 116.762 288.229 116.197C287.985 115.616 287.65 115.111 287.223 114.683C286.797 114.255 286.302 113.919 285.738 113.674C285.174 113.43 284.572 113.307 283.932 113.307C283.277 113.307 282.66 113.43 282.081 113.674C281.502 113.919 280.999 114.255 280.573 114.683C280.146 115.111 279.811 115.616 279.567 116.197C279.323 116.762 279.202 117.366 279.202 118.008V132.041Z" fill="#57CC99"/>
<path d="M322.945 119.544C322.945 121.379 322.617 123.091 321.962 124.681C321.307 126.255 320.416 127.624 319.288 128.785C318.161 129.932 316.835 130.841 315.312 131.514C313.803 132.171 312.181 132.5 310.444 132.5C308.722 132.5 307.099 132.171 305.576 131.514C304.067 130.841 302.742 129.932 301.599 128.785C300.471 127.624 299.58 126.255 298.925 124.681C298.27 123.091 297.942 121.379 297.942 119.544C297.942 117.679 298.27 115.952 298.925 114.362C299.58 112.772 300.471 111.404 301.599 110.258C302.742 109.096 304.067 108.186 305.576 107.529C307.099 106.872 308.722 106.543 310.444 106.543C312.181 106.543 313.803 106.856 315.312 107.483C316.835 108.095 318.161 108.974 319.288 110.12C320.416 111.251 321.307 112.62 321.962 114.225C322.617 115.814 322.945 117.588 322.945 119.544ZM316.66 119.544C316.66 118.536 316.492 117.626 316.157 116.816C315.837 115.99 315.395 115.287 314.832 114.706C314.268 114.11 313.605 113.659 312.843 113.353C312.097 113.032 311.297 112.872 310.444 112.872C309.59 112.872 308.783 113.032 308.021 113.353C307.274 113.659 306.619 114.11 306.056 114.706C305.507 115.287 305.073 115.99 304.753 116.816C304.433 117.626 304.273 118.536 304.273 119.544C304.273 120.492 304.433 121.371 304.753 122.181C305.073 122.992 305.507 123.695 306.056 124.291C306.619 124.887 307.274 125.361 308.021 125.713C308.783 126.049 309.59 126.217 310.444 126.217C311.297 126.217 312.097 126.057 312.843 125.736C313.605 125.415 314.268 124.964 314.832 124.383C315.395 123.802 315.837 123.099 316.157 122.273C316.492 121.448 316.66 120.538 316.66 119.544Z" fill="#57CC99"/>
<path d="M350.05 119.544C350.05 121.379 349.723 123.091 349.068 124.681C348.413 126.255 347.521 127.624 346.394 128.785C345.266 129.932 343.941 130.841 342.417 131.514C340.909 132.171 339.286 132.5 337.549 132.5C335.827 132.5 334.205 132.171 332.681 131.514C331.173 130.841 329.847 129.932 328.704 128.785C327.577 127.624 326.686 126.255 326.03 124.681C325.375 123.091 325.048 121.379 325.048 119.544C325.048 117.679 325.375 115.952 326.03 114.362C326.686 112.772 327.577 111.404 328.704 110.258C329.847 109.096 331.173 108.186 332.681 107.529C334.205 106.872 335.827 106.543 337.549 106.543C339.286 106.543 340.909 106.856 342.417 107.483C343.941 108.095 345.266 108.974 346.394 110.12C347.521 111.251 348.413 112.62 349.068 114.225C349.723 115.814 350.05 117.588 350.05 119.544ZM343.765 119.544C343.765 118.536 343.598 117.626 343.263 116.816C342.943 115.99 342.501 115.287 341.937 114.706C341.373 114.11 340.711 113.659 339.949 113.353C339.202 113.032 338.402 112.872 337.549 112.872C336.696 112.872 335.888 113.032 335.126 113.353C334.38 113.659 333.725 114.11 333.161 114.706C332.612 115.287 332.178 115.99 331.858 116.816C331.538 117.626 331.378 118.536 331.378 119.544C331.378 120.492 331.538 121.371 331.858 122.181C332.178 122.992 332.612 123.695 333.161 124.291C333.725 124.887 334.38 125.361 335.126 125.713C335.888 126.049 336.696 126.217 337.549 126.217C338.402 126.217 339.202 126.057 339.949 125.736C340.711 125.415 341.373 124.964 341.937 124.383C342.501 123.802 342.943 123.099 343.263 122.273C343.598 121.448 343.765 120.538 343.765 119.544Z" fill="#57CC99"/>
<path d="M359.786 132.041H353.501V97.7148H359.786V132.041Z" fill="#57CC99"/>
</svg>
